<svg width="20" height="20" viewBox="0 0 20 20" fill="none" xmlns="http://www.w3.org/2000/svg">
  <path
    d="M4.79843 3.34375C5.10723 3.34375 5.36803 3.44775 5.58403 3.65735C5.79843 3.86695 5.90563 4.12615 5.90563 4.43495V5.27815C5.90563 5.58695 5.79843 5.84775 5.58403 6.06375C5.36963 6.27815 5.10723 6.38535 4.79843 6.38535H3.92163C3.62403 6.38535 3.36803 6.27815 3.15363 6.06375C2.93923 5.84935 2.83203 5.58695 2.83203 5.27815V4.43495C2.83203 4.12615 2.93923 3.86695 3.15363 3.65735C3.36803 3.44775 3.62403 3.34375 3.92163 3.34375H4.79843ZM16.1408 3.34375C16.4384 3.34375 16.6944 3.44775 16.9088 3.65735C17.1232 3.86695 17.2304 4.12615 17.2304 4.43495V5.27815C17.2304 5.58695 17.1232 5.84775 16.9088 6.06375C16.6944 6.27815 16.4384 6.38535 16.1408 6.38535H9.08163C8.77283 6.38535 8.51203 6.27815 8.29603 6.06375C8.08003 5.84935 7.97443 5.58695 7.97443 5.27815V4.43495C7.97443 4.12615 8.08163 3.86695 8.29603 3.65735C8.51043 3.44775 8.77283 3.34375 9.08163 3.34375H16.1408ZM4.79843 8.48455C5.10723 8.48455 5.36803 8.59175 5.58403 8.80615C5.79843 9.02055 5.90563 9.28295 5.90563 9.59175V10.4349C5.90563 10.7325 5.79843 10.9886 5.58403 11.203C5.36963 11.4174 5.10723 11.5246 4.79843 11.5246H3.92163C3.62403 11.5246 3.36803 11.4174 3.15363 11.203C2.93923 10.9886 2.83203 10.7325 2.83203 10.4349V9.59175C2.83203 9.28295 2.93923 9.02215 3.15363 8.80615C3.36803 8.59175 3.62403 8.48455 3.92163 8.48455H4.79843ZM16.1408 8.48455C16.4384 8.48455 16.6944 8.59175 16.9088 8.80615C17.1232 9.02055 17.2304 9.28295 17.2304 9.59175V10.4349C17.2304 10.7325 17.1232 10.9886 16.9088 11.203C16.6944 11.4174 16.4384 11.5246 16.1408 11.5246H9.08163C8.77283 11.5246 8.51203 11.4174 8.29603 11.203C8.08003 10.9886 7.97443 10.7325 7.97443 10.4349V9.59175C7.97443 9.28295 8.08163 9.02215 8.29603 8.80615C8.51043 8.59175 8.77283 8.48455 9.08163 8.48455H16.1408ZM4.79843 13.643C5.10723 13.643 5.36803 13.7501 5.58403 13.9646C5.79843 14.179 5.90563 14.4349 5.90563 14.7325V15.5758C5.90563 15.8846 5.79843 16.1454 5.58403 16.3614C5.36963 16.5758 5.10723 16.683 4.79843 16.683H3.92163C3.62403 16.683 3.36803 16.5758 3.15363 16.3614C2.93923 16.1469 2.83203 15.8846 2.83203 15.5758V14.7325C2.83203 14.4349 2.93923 14.179 3.15363 13.9646C3.36803 13.7501 3.62403 13.643 3.92163 13.643H4.79843ZM16.1408 13.643C16.4384 13.643 16.6944 13.7501 16.9088 13.9646C17.1232 14.179 17.2304 14.4349 17.2304 14.7325V15.5758C17.2304 15.8846 17.1232 16.1454 16.9088 16.3614C16.6944 16.5758 16.4384 16.683 16.1408 16.683H9.08163C8.77283 16.683 8.51203 16.5758 8.29603 16.3614C8.08003 16.1469 7.97443 15.8846 7.97443 15.5758V14.7325C7.97443 14.4349 8.08163 14.179 8.29603 13.9646C8.51043 13.7501 8.77283 13.643 9.08163 13.643H16.1408Z"
    fill="url(#paint0_linear_87_91354)"
  />
  <defs>
    <linearGradient
      id="paint0_linear_87_91354"
      x1="10.0312"
      y1="3.34375"
      x2="10.0312"
      y2="16.683"
      gradientUnits="userSpaceOnUse"
    >
      <stop stop-color="#328CFF" />
      <stop offset="1" stop-color="#377AFD" />
    </linearGradient>
  </defs>
</svg>
