<svg fill="none" xmlns="http://www.w3.org/2000/svg" viewBox="0 0 16 16" class="design-iconfont">
  <g clip-path="url(#um20lmweo__clip0_385_33022)">
    <path
      fill-rule="evenodd"
      clip-rule="evenodd"
      d="M9.31302 13.0883C10.7944 11.8094 13 9.47159 13 6.88873C13 5.56265 12.4732 4.29088 11.5355 3.3532C10.5979 2.41552 9.32608 1.88873 8 1.88873C6.67392 1.88873 5.40215 2.41552 4.46447 3.3532C3.52678 4.29088 3 5.56265 3 6.88873C3 9.47159 5.20556 11.8094 6.68698 13.0883C7.45093 13.7478 8.54907 13.7478 9.31302 13.0883ZM9.75 6.8884C9.75 7.8549 8.9665 8.6384 8 8.6384C7.0335 8.6384 6.25 7.8549 6.25 6.8884C6.25 5.9219 7.0335 5.1384 8 5.1384C8.9665 5.1384 9.75 5.9219 9.75 6.8884Z"
      fill="#C9CCD1"
    />
  </g>
  <defs>
    <clipPath id="um20lmweo__clip0_385_33022">
      <path fill="#fff" d="M0 0H16V16H0z" />
    </clipPath>
  </defs>
</svg>
