<svg fill="none" xmlns="http://www.w3.org/2000/svg" viewBox="0 0 16 16" class="design-iconfont">
  <path fill="#699CFF" d="M8 0A8 8 0 1 0 8 16A8 8 0 1 0 8 0Z" />
  <g clip-path="url(#af3wfk9tg__clip0_217_48734)">
    <path
      d="M10.3846 12.3615C9.95313 12.3615 9.46916 12.2799 8.96188 12.1224C7.74322 11.7434 6.54205 10.9504 5.57995 9.8892C4.13972 8.29736 3.45167 6.71135 3.58578 5.30027C3.6266 4.95042 3.73738 4.50727 4.26217 4.15159C4.6645 3.82506 5.12514 3.63847 5.48666 3.6443C5.86566 3.65013 5.99394 3.78424 6.38462 4.34984C6.9852 5.17783 7.02601 5.58599 7.00269 5.81923C6.96187 6.20406 6.75196 6.37316 6.55954 6.52476C6.5129 6.55975 6.46625 6.60057 6.42543 6.63555C6.1922 6.93293 5.90648 7.34692 7.13097 8.61223C8.1747 9.61514 8.7403 9.73759 8.97937 9.7201C9.16596 9.70844 9.23593 9.60931 9.26508 9.57433L9.27091 9.5685C9.66158 9.02039 9.78986 8.88628 10.163 8.82797C10.5246 8.76966 10.7111 8.88628 11.4808 9.37024C12.1747 9.80756 12.4954 10.0991 12.4254 10.5597C12.4021 11.0612 12.0173 11.7434 11.5858 12.0525C11.2884 12.2565 10.8744 12.3615 10.3846 12.3615Z"
      fill="#fff"
    />
  </g>
  <defs>
    <clipPath id="af3wfk9tg__clip0_217_48734">
      <path fill="#fff" transform="translate(2.28564 2.28571)" d="M0 0H11.4286V11.4286H0z" />
    </clipPath>
  </defs>
</svg>
